<svg width="230" height="326" viewBox="0 0 230 326" fill="none" xmlns="http://www.w3.org/2000/svg">
<path fill-rule="evenodd" clip-rule="evenodd" d="M78.4658 219.082C78.3808 232.368 92.7228 240.753 104.259 234.162L154.021 205.727L228.852 243.97L99.1416 320.572C88.4298 326.898 75.1408 326.964 64.3672 320.744L31.0654 301.517C20.397 295.357 13.8242 283.974 13.8242 271.655V133.628C13.8243 120.98 20.7496 109.347 31.8682 103.317L79.3711 77.5566L78.4658 219.082ZM46.0537 6.22063C56.6036 -0.75655 70.1275 -1.39735 81.29 4.55071L203.102 69.4599C213.973 75.253 220.929 86.4059 221.348 98.7177L222.684 137.964C223.092 149.959 217.233 161.304 207.217 167.915L154.742 202.549L78.9902 162.184L127.485 131.64C138.728 124.558 138.072 107.957 126.307 101.784L0.981445 36.0292L46.0537 6.22063Z" fill="white"/>
</svg>
