<svg width="142" height="22" viewBox="0 0 142 22" fill="none" xmlns="http://www.w3.org/2000/svg">
<g clip-path="url(#clip0_3_32060)">
<path d="M9.74795 15.0854L9.80047 6.87657L7.04518 8.37072C6.40026 8.72045 5.99858 9.39521 5.99858 10.1289L5.99858 18.1348C5.99858 18.8493 6.37978 19.5096 6.99858 19.8669L8.9302 20.9821C9.55511 21.3429 10.3259 21.3391 10.9472 20.9721L18.4708 16.529L14.1304 14.3108L11.244 15.9601C10.5749 16.3424 9.74302 15.8561 9.74795 15.0854Z" fill="white"/>
<path d="M12.5224 8.28172L5.25318 4.46776L7.86752 2.73878C8.47944 2.33408 9.26383 2.2969 9.91129 2.64191L16.9768 6.4068C17.6074 6.74281 18.0108 7.38972 18.0351 8.10384L18.1125 10.3803C18.1362 11.076 17.7964 11.734 17.2154 12.1175L14.1717 14.1264L9.77793 11.7851L12.5908 10.0134C13.2429 9.60266 13.2049 8.63977 12.5224 8.28172Z" fill="white"/>
<path d="M33.26 19.8886V6.92859H38.399C39.275 6.92859 39.992 7.10559 40.55 7.45959C41.114 7.80759 41.531 8.25459 41.801 8.80059C42.077 9.34659 42.215 9.91059 42.215 10.4926C42.215 11.2066 42.044 11.8126 41.702 12.3106C41.366 12.8086 40.907 13.1446 40.325 13.3186V12.8686C41.141 13.0546 41.759 13.4416 42.179 14.0296C42.605 14.6176 42.818 15.2866 42.818 16.0366C42.818 16.8046 42.671 17.4766 42.377 18.0526C42.083 18.6286 41.645 19.0786 41.063 19.4026C40.487 19.7266 39.773 19.8886 38.921 19.8886H33.26ZM35.456 17.8456H38.651C39.029 17.8456 39.368 17.7706 39.668 17.6206C39.968 17.4646 40.202 17.2486 40.37 16.9726C40.544 16.6906 40.631 16.3576 40.631 15.9736C40.631 15.6256 40.556 15.3136 40.406 15.0376C40.256 14.7616 40.037 14.5426 39.749 14.3806C39.461 14.2126 39.116 14.1286 38.714 14.1286H35.456V17.8456ZM35.456 12.1036H38.372C38.684 12.1036 38.963 12.0436 39.209 11.9236C39.455 11.8036 39.65 11.6266 39.794 11.3926C39.938 11.1586 40.01 10.8706 40.01 10.5286C40.01 10.0786 39.866 9.70359 39.578 9.40359C39.29 9.10359 38.888 8.95359 38.372 8.95359H35.456V12.1036ZM44.4355 19.8886V19.5916L50.8255 8.96259H44.8855V6.92859H54.5785V7.23459L48.2245 17.8456H54.4255V19.8886H44.4355ZM60.8745 19.8886V6.92859H63.0435V19.8886H60.8745ZM65.9195 19.8886V6.92859H68.1155L74.1275 16.0636V6.92859H76.3235V19.8886H74.1275L68.1155 10.7536V19.8886H65.9195ZM79.0194 19.8886V6.92859H86.8224V9.09759H81.1884V12.3286H85.7424V14.4886H81.1884V19.8886H79.0194ZM88.8013 19.8886V6.92859H90.9703V19.8886H88.8013ZM93.8462 19.8886V6.92859H96.0422L102.054 16.0636V6.92859H104.25V19.8886H102.054L96.0422 10.7536V19.8886H93.8462ZM107.126 19.8886V6.92859H109.295V19.8886H107.126ZM115.285 19.8886V8.96259H111.091V6.92859H121.648V8.96259H117.454V19.8886H115.285ZM126.962 19.8886V14.5786L122.552 6.92859H125.081L128.06 12.0946L131.03 6.92859H133.559L129.158 14.5786V19.8886H126.962Z" fill="white"/>
</g>
<defs>
<clipPath id="clip0_3_32060">
<rect width="142" height="22" fill="white"/>
</clipPath>
</defs>
</svg>
